<?xml version="1.0" encoding="utf-8"?>
<!-- Generator: Adobe Illustrator 19.2.1, SVG Export Plug-In . SVG Version: 6.00 Build 0)  -->
<svg version="1.1" id="Layer_1" xmlns="http://www.w3.org/2000/svg" xmlns:xlink="http://www.w3.org/1999/xlink" x="0px" y="0px"
	 viewBox="0 0 379 182" style="enable-background:new 0 0 379 182;" xml:space="preserve">
<style type="text/css">
	.st0{fill:#2C2A29;}
</style>
<g id="Слой_x0020_1">
	<g>
		<path class="st0" d="M61,162.1c-0.9,0-1.7,0.2-2.4,0.5l0,0l0,0l0,0l0,0c-0.1,0.1-0.3,0.1-0.4,0.1c-0.1,0.1-0.2,0.1-0.4,0.2
			c-0.5,0.3-1,0.6-1.4,1l0,0l0,0l0,0l0,0l-0.1,0.1c-0.1,0.1-0.1,0.1-0.2,0.2c-0.1,0.1-0.1,0.1-0.2,0.2c-0.4,0.5-0.6,1-0.9,1.7l0,0
			c-0.1,0.4-0.3,0.8-0.4,1.2c-0.1,0.4-0.1,0.9-0.1,1.3c0,1.8,0.6,3.3,1.9,4.6l0,0c0.6,0.6,1.4,1.2,2.1,1.4c0.8,0.3,1.7,0.5,2.6,0.5
			l0,0h0.1l0,0c0.3,0,0.6-0.1,0.9-0.1c0.1,0,0.2-0.1,0.3-0.1c0.2,0,0.4-0.1,0.5-0.1l0,0l0,0l0,0h0.1c0.1,0,0.1,0,0.1-0.1l0,0l0,0
			c0.1,0,0.2-0.1,0.2-0.1c0.4-0.1,0.7-0.3,1.1-0.6c0.4-0.1,0.8-0.1,1,0.2l0,0l0.5,0.7c0.2,0.4,0.1,0.8-0.2,1l-0.1,0.1l0,0
			c-0.1,0.1-0.2,0.1-0.4,0.2c-0.1,0.1-0.3,0.1-0.4,0.2c-0.7,0.4-1.4,0.6-2,0.7h-0.1l0,0l-0.2,0.1h-0.1l0,0l0,0h-0.1
			c-0.4,0.1-0.8,0.1-1.2,0.1l0,0l0,0c-0.6,0-1.2-0.1-1.7-0.2c-0.2,0-0.4-0.1-0.6-0.1l0,0l0,0c-0.4-0.1-0.7-0.2-1.1-0.4l0,0l0,0
			c-0.1,0-0.1,0-0.1,0c-0.1-0.1-0.3-0.1-0.4-0.2s-0.3-0.1-0.4-0.2c-0.7-0.4-1.3-0.9-1.9-1.5c-0.4-0.4-0.7-0.9-1-1.3
			c-0.4-0.5-0.6-1-0.9-1.5c-0.2-0.6-0.4-1.2-0.5-1.7c-0.1-0.6-0.2-1.2-0.2-1.7l0,0l0,0c0-0.4,0.1-0.8,0.1-1.2l0,0l0,0l0.1-0.2
			c0,0,0,0,0-0.1c0.1-0.3,0.1-0.6,0.2-0.9l0,0l0,0l0,0c0-0.1,0.1-0.2,0.1-0.3s0.1-0.1,0.1-0.3l0,0l0,0c0.1-0.5,0.4-1,0.7-1.5l0,0
			c0,0,0.1-0.1,0.1-0.2c0.1-0.1,0.1-0.2,0.2-0.3c0.3-0.4,0.6-0.9,1-1.2c0.6-0.5,1.1-0.9,1.8-1.4l0,0l0,0c0.1,0,0.1,0,0.1,0
			c0.1-0.1,0.1-0.1,0.2-0.1c0.1,0,0.2-0.1,0.3-0.1c0.5-0.2,1-0.4,1.5-0.6l0,0h0.1c0.1,0,0.3-0.1,0.5-0.1c0.1,0,0.4-0.1,0.5-0.1
			c0.4-0.1,0.8-0.1,1.1-0.1H61l0,0c0.4,0,0.8,0,1.2,0.1l0,0l0,0h0.1v0.1V160c0.4,0.1,0.6,0.1,1,0.2c0.4,0.1,0.6,0.3,1,0.4
			c0.4,0.1,0.7,0.3,1.1,0.5c0.3,0.2,0.4,0.6,0.2,1l0,0l0,0l-0.4,0.6c-0.2,0.3-0.6,0.4-0.9,0.2l0,0c-0.3-0.1-0.5-0.2-0.8-0.4
			c-0.2-0.1-0.5-0.1-0.8-0.3l0,0l0,0c-0.1,0-0.1,0-0.2,0c-0.1-0.1-0.1-0.1-0.2-0.1C61.9,162.2,61.5,162.1,61,162.1L61,162.1z
			 M73.8,161.5L73.8,161.5v-0.8c0-0.4,0.4-0.7,0.7-0.7h10.9c0.4,0,0.7,0.4,0.7,0.7v0.8c0,0.4-0.3,0.7-0.7,0.7l0,0h-4.2v14.3
			c0,0.4-0.4,0.7-0.7,0.7h-0.1h-0.9c-0.4,0-0.7-0.4-0.7-0.7v-0.1v-14.2h-4.4C74.2,162.3,73.8,161.9,73.8,161.5z M97.4,176.9l0.8-1.9
			l0,0l0,0l1.1-2.5l-5.1-11.4c-0.2-0.4,0-0.8,0.4-1c0.1,0,0.1,0,0.3,0V160h0.9c0.3,0,0.6,0.2,0.7,0.5l4.1,9.2l4-9.2
			c0.1-0.3,0.4-0.4,0.6-0.4V160h0.9c0.4,0,0.7,0.4,0.7,0.7c0,0.1,0,0.2,0,0.4l-7.1,16.4c-0.1,0.3-0.4,0.5-0.6,0.4h-0.1h-0.9
			c-0.4,0-0.7-0.3-0.7-0.7C97.3,177.2,97.4,177,97.4,176.9z M115.4,174.9h1.6l4.4-13.4l-0.1-0.5c-0.1-0.4,0.1-0.8,0.5-0.9
			c0.1,0,0.1-0.1,0.2-0.1l0,0h0.6c0.4,0,0.6,0.3,0.7,0.6l4.7,14.2h1.6c0.4,0,0.7,0.4,0.7,0.7c0,0.1,0,0.1,0,0.1v0.9
			c0,0.4-0.3,0.7-0.7,0.7l0,0h-14.2c-0.4,0-0.7-0.4-0.7-0.7c0-0.1,0-0.1,0-0.1v-0.9C114.7,175.2,115,174.9,115.4,174.9L115.4,174.9z
			 M122.5,165.6l-3.1,9.3h6.1L122.5,165.6z M139.8,160h0.9c0.4,0,0.7,0.3,0.7,0.7l0,0v13.1l6.5-4.5v-8.6c0-0.4,0.4-0.7,0.7-0.7h0.1
			h0.9c0.4,0,0.7,0.3,0.7,0.7l0,0v15.8c0,0.4-0.3,0.7-0.7,0.7c0,0,0,0-0.1,0h-0.9c-0.4,0-0.7-0.4-0.7-0.7l0,0v-4.5l-7.5,5.1
			c-0.1,0.1-0.3,0.1-0.4,0.1l0,0h-1.2c-0.4,0-0.7-0.4-0.7-0.7c0-0.3,0.1-0.5,0.3-0.6l0.6-0.4v-14.8C139,160.3,139.4,160,139.8,160
			C139.8,160,139.8,160,139.8,160z M163.5,176.6V168l-2.8,8.8c-0.1,0.4-0.4,0.5-0.7,0.5H159c-0.4,0-0.7-0.3-0.7-0.7
			c0-0.1,0.1-0.1,0.1-0.2l0,0l2.8-8.7c-0.1,0-0.1-0.1-0.2-0.1c-0.3-0.1-0.6-0.2-0.9-0.4l0,0l0,0v-0.1c-0.1-0.1-0.3-0.1-0.4-0.3
			c-0.1-0.1-0.3-0.2-0.4-0.4c-0.6-0.6-0.9-1.5-0.9-2.6c0-0.4,0.1-0.8,0.1-1.1l0,0l0,0c0.1-0.3,0.2-0.6,0.4-0.9l0,0L163.5,176.6z
			 M163.5,176.6L163.5,176.6L163.5,176.6z M158.9,161.9L158.9,161.9L158.9,161.9z M159.2,161.4c0.1-0.1,0.2-0.3,0.4-0.4l0.1-0.1
			c0.7-0.6,1.6-0.9,2.7-0.9h2.7c0.4,0,0.7,0.4,0.7,0.7v15.8c0,0.4-0.3,0.7-0.7,0.7c0,0,0,0-0.1,0h-0.9c-0.4,0-0.7-0.4-0.7-0.7
			L159.2,161.4z M162.3,162.3L162.3,162.3L162.3,162.3c-0.2,0-0.4,0.1-0.6,0.1l0,0c-0.1,0-0.1,0.1-0.1,0.1l0,0
			c-0.1,0.1-0.3,0.1-0.4,0.2c-0.1,0.1-0.3,0.3-0.4,0.5c-0.1,0.1-0.1,0.4-0.1,0.6c0,0.1,0.1,0.3,0.1,0.4c0.1,0.1,0.1,0.2,0.1,0.4l0,0
			c0.1,0.2,0.4,0.4,0.6,0.5c0.2,0.1,0.4,0.1,0.8,0.1l0,0h1.2v-2.9H162.3L162.3,162.3z M186.7,161.5L186.7,161.5v-0.8
			c0-0.4,0.3-0.7,0.7-0.7h10.9c0.4,0,0.7,0.4,0.7,0.7v0.8c0,0.4-0.4,0.7-0.7,0.7h-0.1h-4.2v14.3c0,0.4-0.3,0.7-0.7,0.7l0,0h-0.9
			c-0.4,0-0.7-0.4-0.7-0.7v-0.1v-14.2h-4.4C187,162.3,186.7,161.9,186.7,161.5z M217.9,177.3L217.9,177.3h-10.3
			c-0.4,0-0.7-0.4-0.7-0.7v-0.1v-15.8c0-0.4,0.4-0.7,0.7-0.7h10.3c0.4,0,0.7,0.3,0.7,0.7v0.8c0,0.4-0.3,0.7-0.7,0.7l0,0h-8.7v3h8.7
			c0.4,0,0.7,0.4,0.7,0.7v0.1v0.7c0,0.4-0.3,0.7-0.7,0.7l0,0h-8.7v7.5h8.7c0.4,0,0.7,0.3,0.7,0.7v0.9
			C218.7,176.9,218.4,177.3,217.9,177.3z M228.1,177.3L228.1,177.3h-0.9c-0.4,0-0.7-0.4-0.7-0.7v-0.1v-15.8c0-0.4,0.3-0.7,0.7-0.7
			h0.9c0.4,0,0.7,0.4,0.7,0.7v3.9l5.9-4.5c0.1-0.1,0.3-0.1,0.4-0.1l0,0h1.2c0.4,0,0.7,0.4,0.7,0.7c0,0.3-0.1,0.5-0.4,0.6l-5.2,4
			c0.3,0,0.6,0.1,0.9,0.1c0.1,0,0.3,0,0.4,0.1c0.3,0.1,0.5,0.1,0.8,0.3l0,0c0.1,0.1,0.2,0.1,0.3,0.1c0.1,0.1,0.2,0.1,0.4,0.1l0,0
			l0,0c0.5,0.3,0.9,0.6,1.4,1.1l0,0l0,0c0.1,0.1,0.1,0.1,0.2,0.3c0.1,0.1,0.1,0.1,0.2,0.2l0,0v0.1c0.4,0.4,0.6,0.9,0.8,1.5l0,0
			c0.1,0.4,0.3,0.8,0.4,1.2c0.1,0.4,0.1,0.9,0.1,1.3l0,0v4.7c0,0.4-0.3,0.7-0.7,0.7c0,0,0,0-0.1,0h-0.9c-0.4,0-0.7-0.4-0.7-0.7l0,0
			v-4.9c0-0.4,0-0.6-0.1-0.9c0-0.3-0.1-0.5-0.2-0.8c-0.2-0.5-0.4-0.9-0.8-1.2l0,0l0,0l0,0l0,0l-0.1-0.1l0,0l0,0l-0.1-0.1h-0.1v-0.1
			l0,0c0,0-0.1-0.1-0.1-0.1c-0.3-0.2-0.6-0.4-0.9-0.6c-0.5-0.1-1.1-0.3-1.7-0.3l0,0h-1.9v9C228.9,176.9,228.6,177.3,228.1,177.3z
			 M254,162.1c-0.9,0-1.7,0.2-2.5,0.5l0,0l0,0l0,0l0,0c-0.1,0.1-0.2,0.1-0.3,0.1c-0.1,0.1-0.2,0.1-0.4,0.2c-0.5,0.3-1,0.6-1.4,1l0,0
			l0,0l0,0l0,0v0.1c-0.1,0.1-0.1,0.1-0.2,0.2s-0.1,0.1-0.2,0.2c-0.4,0.5-0.6,1-0.9,1.7l0,0c-0.2,0.4-0.3,0.8-0.4,1.2
			c-0.1,0.4-0.1,0.9-0.1,1.3c0,1.8,0.6,3.3,1.9,4.6l0,0c0.6,0.6,1.3,1.2,2.1,1.4s1.7,0.5,2.6,0.5l0,0l0,0l0,0c0.4,0,0.6-0.1,0.9-0.1
			c0.1,0,0.1-0.1,0.3-0.1s0.4-0.1,0.5-0.1l0,0l0,0l0,0c0,0,0,0,0.1,0c0,0,0.1,0,0.1-0.1l0,0l0,0c0.1,0,0.1-0.1,0.2-0.1
			c0.4-0.1,0.7-0.3,1.1-0.6c0.4-0.1,0.8-0.1,1,0.2l0,0l0.4,0.7c0.2,0.4,0.1,0.8-0.1,1l-0.1,0.1l0,0c-0.1,0.1-0.3,0.1-0.4,0.2
			c-0.1,0.1-0.2,0.1-0.4,0.2c-0.7,0.4-1.4,0.6-2.1,0.7l0,0l0,0l-0.2,0.1h-0.1l0,0l0,0h-0.2c-0.4,0.1-0.8,0.1-1.1,0.1l0,0l0,0
			c-0.6,0-1.2-0.1-1.8-0.2c-0.1,0-0.4-0.1-0.5-0.1l0,0h-0.1c-0.3-0.1-0.7-0.2-1.1-0.4l0,0l0,0c0,0,0,0-0.1,0
			c-0.1-0.1-0.2-0.1-0.4-0.2s-0.3-0.1-0.4-0.2c-0.7-0.4-1.4-0.9-1.9-1.5c-0.4-0.4-0.7-0.9-1.1-1.3c-0.3-0.5-0.6-1-0.8-1.5
			c-0.2-0.6-0.4-1.2-0.5-1.7c-0.1-0.6-0.2-1.2-0.2-1.7l0,0l0,0c0-0.4,0-0.8,0.1-1.2l0,0l0,0l0.1-0.2c0,0,0,0,0-0.1
			c0-0.3,0.1-0.6,0.2-0.9l0,0l0,0l0,0c0-0.1,0-0.2,0.1-0.3c0-0.1,0.1-0.1,0.1-0.3l0,0l0,0c0.2-0.5,0.5-1,0.8-1.5l0,0
			c0,0,0.1-0.1,0.1-0.2c0.1-0.1,0.1-0.2,0.1-0.3c0.4-0.4,0.7-0.9,1.1-1.2c0.6-0.5,1.1-0.9,1.8-1.4l0,0l0,0h0.1
			c0.1-0.1,0.1-0.1,0.2-0.1c0.1,0,0.2-0.1,0.3-0.1c0.5-0.2,1-0.4,1.5-0.6l0,0l0,0c0.2,0,0.4-0.1,0.6-0.1c0.1,0,0.4-0.1,0.5-0.1
			c0.4-0.1,0.8-0.1,1.1-0.1l0,0l0,0c0.4,0,0.9,0,1.3,0.1l0,0l0,0h0.1v0.1V160c0.4,0.1,0.6,0.1,0.9,0.2c0.4,0.1,0.7,0.3,1.1,0.4
			c0.4,0.1,0.7,0.3,1,0.5c0.4,0.2,0.5,0.6,0.3,1h-0.1l0,0l-0.4,0.6c-0.1,0.3-0.6,0.4-0.9,0.2l0,0c-0.2-0.1-0.4-0.2-0.7-0.4
			c-0.2-0.1-0.5-0.1-0.8-0.3l0,0l0,0c-0.1,0-0.1,0-0.2,0c-0.1-0.1-0.1-0.1-0.2-0.1C254.9,162.2,254.4,162.1,254,162.1L254,162.1z
			 M266.8,161.5L266.8,161.5v-0.8c0-0.4,0.3-0.7,0.7-0.7h10.9c0.4,0,0.7,0.4,0.7,0.7v0.8c0,0.4-0.4,0.7-0.7,0.7l0,0h-4.2v14.3
			c0,0.4-0.3,0.7-0.7,0.7l0,0h-0.9c-0.4,0-0.7-0.4-0.7-0.7v-0.1v-14.2h-4.4C267.1,162.3,266.8,161.9,266.8,161.5z M288.7,160h0.9
			c0.4,0,0.7,0.3,0.7,0.7l0,0v13.1l6.6-4.5v-8.6c0-0.4,0.3-0.7,0.7-0.7c0,0,0,0,0.1,0h0.9c0.4,0,0.7,0.3,0.7,0.7l0,0v15.8
			c0,0.4-0.3,0.7-0.7,0.7c0,0,0,0-0.1,0h-0.9c-0.4,0-0.7-0.4-0.7-0.7l0,0v-4.5l-7.5,5.1c-0.1,0.1-0.3,0.1-0.4,0.1l0,0h-1.1
			c-0.4,0-0.7-0.4-0.7-0.7c0-0.3,0.1-0.5,0.3-0.6l0.6-0.4v-14.8C287.9,160.3,288.3,160,288.7,160C288.7,160,288.7,160,288.7,160z
			 M320.5,176.9l-5.5-12.4l-5.5,12.4c-0.1,0.2-0.4,0.4-0.6,0.4l0,0h-0.9c-0.4,0-0.7-0.4-0.7-0.7c0-0.1,0-0.2,0.1-0.4l6.5-14.7
			l-0.1-0.4c-0.1-0.4,0.1-0.8,0.4-0.9c0.1,0,0.1,0,0.2,0V160h0.9c0.3,0,0.6,0.2,0.6,0.5l6.9,15.8c0.1,0.4,0,0.8-0.4,0.9
			c-0.1,0-0.2,0.1-0.4,0.1h-0.9C320.9,177.3,320.6,177.1,320.5,176.9L320.5,176.9z M335.9,176.6V168l-2.8,8.8
			c-0.1,0.4-0.4,0.5-0.8,0.5h-0.9c-0.4,0-0.7-0.3-0.7-0.7c0-0.1,0-0.1,0.1-0.2l0,0l2.7-8.7c0,0-0.1-0.1-0.1-0.1
			c-0.3-0.1-0.6-0.2-0.9-0.4l0,0l0,0v-0.1c-0.2-0.1-0.4-0.1-0.4-0.3c-0.1-0.1-0.3-0.2-0.4-0.4c-0.6-0.6-0.9-1.5-0.9-2.6
			c0-0.4,0.1-0.8,0.1-1.1l0,0l0,0c0.1-0.3,0.2-0.6,0.4-0.9h0.1L335.9,176.6z M335.9,176.6L335.9,176.6L335.9,176.6z M331.2,161.9
			L331.2,161.9L331.2,161.9z M331.6,161.4c0.1-0.1,0.3-0.3,0.4-0.4V161c0.7-0.6,1.7-0.9,2.7-0.9h2.8c0.4,0,0.7,0.4,0.7,0.7v15.8
			c0,0.4-0.4,0.7-0.7,0.7h-0.1h-0.9c-0.4,0-0.7-0.4-0.7-0.7L331.6,161.4z M334.7,162.3L334.7,162.3L334.7,162.3
			c-0.3,0-0.5,0.1-0.6,0.1l0,0c-0.1,0-0.1,0.1-0.2,0.1l0,0c-0.1,0.1-0.2,0.1-0.4,0.2c-0.1,0.1-0.2,0.3-0.3,0.5
			c-0.1,0.1-0.1,0.4-0.1,0.6c0,0.1,0,0.3,0.1,0.4c0,0.1,0.1,0.2,0.1,0.4l0,0c0.1,0.2,0.4,0.4,0.5,0.5c0.2,0.1,0.5,0.1,0.9,0.1l0,0
			h1.2v-2.9H334.7L334.7,162.3z M164.2,176.6v-9.6H163l-1.1,3.6l-0.1,0.2l-1.9,5.8H159l2.4-7.2l0.1-0.4l0.6-2h-0.1
			c-0.4,0-0.7-0.1-1.1-0.2c-0.1-0.1-0.3-0.1-0.4-0.2h-0.1c-0.9-0.6-1.4-1.4-1.4-2.7c0-0.3,0.1-0.6,0.1-0.9c0-0.1,0-0.1,0.1-0.1
			c0.1-0.2,0.1-0.4,0.2-0.6c0.1-0.1,0.1-0.1,0.2-0.2c0.6-0.9,1.5-1.3,2.7-1.3h2.7v15.8H164.2z M162.3,161.6c-0.6,0-1.2,0.2-1.7,0.6
			c-0.4,0.3-0.6,0.7-0.6,1.2c0,0.1-0.1,0.3-0.1,0.4c0,0.4,0.1,0.8,0.4,1.2c0.1,0.1,0.1,0.2,0.2,0.3c0.4,0.5,1,0.7,1.7,0.7h1.9v-4.4
			H162.3z M336.6,176.6v-9.6h-1.1l-1.1,3.6l-0.1,0.2l-1.9,5.8h-0.9l2.3-7.2l0.1-0.4l0.6-2h-0.2c-0.4,0-0.7-0.1-1-0.2
			c-0.1-0.1-0.3-0.1-0.4-0.2h-0.1c-0.9-0.6-1.4-1.4-1.4-2.7c0-0.3,0-0.6,0.1-0.9c0.1-0.1,0.1-0.1,0.1-0.1c0.1-0.2,0.2-0.4,0.3-0.6
			c0.1-0.1,0.1-0.1,0.1-0.2c0.6-0.9,1.6-1.3,2.7-1.3h2.8v15.8H336.6z M334.7,161.6c-0.6,0-1.2,0.2-1.7,0.6c-0.4,0.3-0.6,0.7-0.6,1.2
			c-0.1,0.1-0.1,0.3-0.1,0.4c0,0.4,0.1,0.8,0.3,1.2c0.1,0.1,0.1,0.2,0.2,0.3c0.4,0.5,1,0.7,1.8,0.7h1.9v-4.4H334.7z"/>
	</g>
	<path class="st0" d="M108.2,151.8H87.1V150c4.3,0,6.5-1.9,6.5-5.5v-33l-16.2,40.4h-1.9l-16-39.1v27.3c0,2.8,0.5,5,1.6,6.7
		c1.2,2.2,3.2,3.2,5.8,3.2v1.9H50.3V150c4.8,0,7.2-3.2,7.2-9.7v-30c-1.7-1.9-4-2.8-7.2-2.8v-1.8h14.9l14.6,35l14.3-35h14.1v1.8
		c-4.3,0-6.5,1.7-6.5,4.9v32.8c0,1.9,0.6,3.3,1.9,4c1,0.5,2.5,0.8,4.5,0.8V151.8z M97.8,107.4c-1.4,0-2.3,0.5-2.7,1.6
		c-0.3,0.6-0.4,1.7-0.4,3.3v32.6c0,1.4-0.1,2.4-0.4,2.9c-0.3,0.9-1,1.5-2,2.1h1.1c1.4,0,2.4-0.5,2.9-1.4c0.3-0.6,0.4-1.8,0.4-3.4
		v-32.8C96.7,110,97,108.3,97.8,107.4z M76.8,147.7c0-0.6-0.4-1.7-1-3.2l-12.7-31c-0.9-2-1.6-3.5-2.2-4.2c-1.1-1.2-2.5-1.9-4.2-1.9
		h-1.2c1.5,0.5,2.7,1.4,3.6,2.6c0.4,0.6,1.1,2,1.9,4l15.2,36C76.5,149.1,76.8,148.4,76.8,147.7z M60.9,150c-1.7-0.8-2.9-2.2-3.3-4.2
		c-0.7,2-1.8,3.5-3.2,4.2H60.9z M163.4,107.4c-2.7,0.4-4.5,1.7-5.5,3.9c-0.9,2-1.3,5-1.3,9.1v16.9c0,5.2-1.9,9.1-5.7,11.8
		c-3.3,2.4-7.7,3.6-13.1,3.6c-7,0-12.3-1.9-15.6-5.9c-1.8-2.2-2.7-5.3-2.7-9.1v-24.9c0-2.4-0.6-4-1.9-4.7c-0.5-0.2-2.3-0.4-5.3-0.7
		v-1.8h22.1v1.8c-2.6,0.2-4.2,0.4-4.8,0.8c-1.2,0.6-1.8,2.1-1.8,4.2v26c0,3.8,1.2,6.8,3.8,8.8c2.3,1.8,5.4,2.7,9.3,2.7
		c4.3,0,7.7-1.2,10.1-3.5c2.5-2.4,3.7-5.8,3.7-10.1v-15.8c0-6-1-9.9-3.1-11.4c-1.2-0.9-2.9-1.4-5.1-1.7v-1.8h16.7V107.4z
		 M157.7,107.4H151c2,0.9,3.3,2.7,3.8,5.2C155.3,110.2,156.3,108.5,157.7,107.4z M133.8,151.6c-7.3-3.1-11-7.7-11-13.7v-26.2
		c0-2.9-1.3-4.4-3.8-4.4l-0.1,0.1c0.4,0.7,0.8,1.5,1.1,2.2c0.4,0.9,0.6,1.7,0.6,2.5v26C120.7,145.2,125,149.7,133.8,151.6z
		 M202.3,137.8c0,4.1-1.4,7.6-4.3,10.4c-2.9,2.9-6.4,4.3-10.5,4.3c-1.4,0-3.4-0.4-6.1-1.4c-2.7-0.9-4.7-1.4-6.1-1.4
		c-1.7,0-3.2,0.6-4.2,2h-1.9v-16.6h2.1c3.7,10.4,9.1,15.5,16.2,15.5c2.7,0,5-0.9,7-2.5s2.9-3.8,2.9-6.5s-0.6-4.7-2-6
		c-1.9-2.1-5.8-3.5-11.6-4.3c-6.3-0.9-10.5-2.9-12.7-5.9c-1.6-2.1-2.3-4.5-2.3-7.4c0-3.7,1.2-6.9,3.6-9.5c2.4-2.5,5.5-3.8,9.3-3.8
		c1.1,0,2.7,0.2,4.9,0.6c2.2,0.4,3.7,0.6,4.8,0.6c1.1,0,2.2-0.3,3.3-0.8h2.4l1.4,13.5h-2.2c-2.1-3.9-4.1-6.7-5.9-8.4
		c-2.7-2.7-5.7-4-9.1-4c-2.3,0-4.4,0.8-6.2,2.4c-1.8,1.7-2.7,3.6-2.7,5.9c0,2.2,0.9,4,2.7,5.3c2.3,1.6,6.8,2.9,13.6,3.9
		C197.8,125.1,202.3,129.8,202.3,137.8z M194.9,114l-1.1-6.2c-0.6,0.2-1.4,0.3-2.1,0.3c-0.9,0-1.9-0.1-2.6-0.3
		c0.9,0.6,1.9,1.6,3,2.9C193.7,112.6,194.7,113.7,194.9,114z M199.9,139.6c0-3.2-1.1-5.7-3.4-7.3c-1.7-1.2-4.2-2.2-7.8-3
		c-2-0.4-5-0.9-8.9-1.8c-3.1-0.7-5.4-2.2-7-4.2c-1.6-2.1-2.4-4.4-2.4-6.9c0-0.8-0.1-1.4-0.1-1.8c-0.3,0.9-0.5,2.2-0.5,4.2
		c0,1.6,0.5,3.2,1.5,5s2.1,3,3.4,3.9c0.6,0.4,1.7,0.9,3.4,1.3c3.4,0.9,6.6,1.7,9.8,2.3c7,1.3,10.6,4.7,10.6,10c0,1.5-0.5,3.2-1.4,5
		C199,144.4,199.9,142.2,199.9,139.6z M174.5,148.2c-1.9-2.2-3.3-4.5-4.2-6.9v8.7C171.4,148.6,172.7,148,174.5,148.2z M252.9,142
		c-5,7.2-11.9,10.7-20.8,10.7c-6.8,0-12.4-2.2-17-6.8c-4.6-4.5-6.9-10.1-6.9-16.9c0-6.7,2.2-12.4,6.8-17.1
		c4.5-4.7,10.1-7.1,16.8-7.1c1.4,0,3.4,0.4,6.1,1c2.7,0.7,4.7,1.1,6,1.1c1.7,0,3.2-0.6,4.3-1.9h2.7v14.5h-2
		c-4.2-8.6-9.5-12.9-16-12.9c-5.2,0-9.1,2.4-11.8,7.3c-2.2,4-3.3,8.8-3.3,14.3c0,5.8,1.4,10.6,4.1,14.7c3.2,4.7,7.4,7.1,12.9,7.1
		c6.3,0,11.6-3.1,16.1-9.1L252.9,142z M247,113.3l-0.2-5.5c-0.9,0.4-2.2,0.6-4,0.6C242.9,108.5,244.3,110.2,247,113.3z M230.4,151.8
		c-5.5-1.4-10.1-4.2-13.5-8.3c-3.7-4.2-5.5-9.2-5.5-14.7c0-3.5,0.7-6.9,2.3-10.1c1.5-3.2,3.7-6,6.3-8.3c1.4-1.3,3.2-2.6,5.4-4
		c-10.7,4.1-16.1,11.5-16.1,22.2c0,6.3,1.9,11.5,5.8,15.8S224.2,151.1,230.4,151.8z M302.1,151.8h-19.4V150c3.3,0,5-0.9,5-2.7
		c0-0.7-0.4-1.9-0.9-3.5l-3.7-9.4h-15.5l-2.2,5.5c-0.5,1.4-0.8,2.9-0.8,4.4c0,1.6,0.4,2.9,1.4,4c1,1.1,2.2,1.6,3.8,1.6v1.9h-15.2
		V150c3.2,0,5.9-2.9,8.2-8.7l11.3-29c-1-1.9-2.9-2.9-5.6-2.9v-1.4l5.9-2.7h5.9l15.1,38.6c1.6,4.1,3.8,6.1,6.6,6.1V151.8z
		 M290.9,147.2c0-1.2-0.4-2.7-1.1-4.7L278,112.9c-1.1-2.7-2.5-4.1-4.2-4.1c-0.6,0-1.1,0.1-1.7,0.3c1.7,0.7,3,2.2,4,4.6l11.6,29.6
		c0.6,1.8,1,3.2,1,4.1c0,0.9-0.6,1.8-1.7,2.6h0.7C289.8,150,290.9,149,290.9,147.2z M282.3,132.3l-7-17.7l-6.9,17.7H282.3z
		 M264.6,150c-1.3-0.9-2-2.2-2-3.6c0-0.1,0.1-0.9,0.4-2.3l-0.1-0.1c0.1,0.1,0.1,0.2,0.1,0.4c0,0.6-1.6,2.4-4.7,5.6H264.6z
		 M353.3,151.8h-6.1c-2.3,0-4.5-0.9-6.5-2.7c-1.3-1-2.9-2.9-4.9-5.4l-4.6-5.8c-1.1-1.4-2.2-2.9-3.4-4.3c-1.7-2-3.1-3-4.1-3h-3.6
		v13.9c0,1.9,0.4,3.2,1.1,4c0.7,0.6,2.1,1.2,4,1.4c1,0.1,1.7,0.2,2.1,0.1v1.9h-22.6V150c3.2-0.2,5-0.4,5.5-0.7c1.4-0.6,2-2.3,2-4.9
		v-31.4c0-2.7-0.9-4.4-2.6-4.9c-0.8-0.2-2.4-0.4-4.9-0.6v-1.8h25.8c4,0,7.5,0.9,10.6,2.9c3.6,2.2,5.3,5.3,5.3,9.1
		c0,3.3-1.3,6.1-3.9,8.4c-2.2,2.1-5.1,3.4-8.6,4c0.9,1,2.2,2.5,4,4.5c4.5,5.2,8,9.2,10.7,12.2c1.5,1.7,3.1,2.7,4.8,3.2V151.8z
		 M340.6,118c0-6.2-2.7-9.6-8-10.4c3.9,1.9,5.8,5.5,5.8,10.8c0,2.7-0.5,4.7-1.6,6.4c-1,1.6-2.8,2.8-5.2,3.8
		C337.6,128,340.6,124.4,340.6,118z M337.4,118.1c0-2.1-0.5-4.1-1.4-5.9c-0.9-1.9-2.4-3.3-4.2-4c-1.4-0.5-3.3-0.8-5.6-0.8
		c-2.4,0-4,0.5-4.8,1.5c-0.7,0.9-1.1,2.7-1.1,5.2v14.7h5.3c2,0,4-0.4,6-1.2c2.2-0.9,3.7-2.1,4.6-3.7
		C337,122.6,337.4,120.6,337.4,118.1z M347.8,150.9c-2.7-1.4-5.3-3.7-8-7c-2.2-2.7-4.4-5.5-6.6-8.4c-0.9-1.2-2.4-2.8-4.4-4.9H326
		c1.9,1.4,4.7,4.7,8.6,10.1c3.7,4.9,6.5,7.8,8.6,9C344.6,150.4,346.2,150.8,347.8,150.9z M315.1,146.7V113c0-2.1-0.2-3.5-0.6-4.2
		c-0.6-0.9-1.9-1.4-3.9-1.4c1.7,0.7,2.6,2.4,2.6,5v33.4c0,2-0.7,3.5-2.3,4.2C313.7,150,315.1,148.9,315.1,146.7z M379,151.8h-21.8
		V150c2.7,0,4.4-0.3,5.2-0.9c1-0.7,1.6-2.4,1.6-4.9v-30.9c0-2.2-0.6-3.7-1.9-4.7c-1-0.7-2.7-1.2-5-1.2v-1.8H379v1.8
		c-2.4,0-4,0.4-5,1.2c-1.1,0.9-1.7,2.4-1.7,4.7v30.9c0,2.2,0.6,3.8,1.8,4.7c1,0.7,2.7,1.1,5,1.1V151.8z M367.1,146.5v-34.8
		c0-2.9-1.6-4.3-4.7-4.3c1.1,0.4,1.9,1,2.3,1.9c0.2,0.6,0.4,1.6,0.4,3v33.4c0,1.8-0.9,3.2-2.7,4.2
		C365.6,150,367.1,148.8,367.1,146.5z"/>
	<path class="st0" d="M110.3,0.4c3.8-1.7,5.9,2.4,3.4,4.3c-6.5,3.7-10.9,7.8-13.9,14.8c-0.9,2.4-4.7,2.1-3.5-1.7
		C99.1,10.1,102.7,4.6,110.3,0.4z"/>
	<path class="st0" d="M92.2,3.1c1.9-1.9,4.6,0.5,2.9,2.8c-2.5,3.1-2.7,5-2.8,9.2c0,3.3-3.9,3.2-3.9,0.6C88.4,10.5,88.8,7.4,92.2,3.1
		z"/>
	<path class="st0" d="M81.6,6.4c1.4-2.2,4.6-0.6,3.4,2c-1.7,3.6-1.4,5.5-0.6,9.7c0.8,3.2-2.9,4-3.6,1.4
		C79.5,14.6,79.2,11.3,81.6,6.4z"/>
	<path class="st0" d="M70.5,12.6c0.2-3.2,3.8-3.3,4.1-0.6c0.5,3.5,0.8,3.9,2.4,8c1.4,3.1-2.4,4.5-3.7,2.4C71,17.5,70.6,17,70.5,12.6
		z"/>
	<path class="st0" d="M62,16.9c-0.3-3.3,3.3-4,4.1-1.3c1.1,3.5,1.4,3.7,3.8,7.6c2,2.9-1.6,5-3.4,3C63.3,21.7,62.8,21.3,62,16.9z"/>
	<path class="st0" d="M53.1,19.8c-0.6-3.3,3.2-4.2,4.3-1.6c1.5,3.5,1.9,3.7,4.7,7.5c2.1,2.8-1.2,5.5-3.6,2.8
		C54.7,24.2,54.5,23.9,53.1,19.8z"/>
	<path class="st0" d="M43.4,23.1c-0.8-3.5,2.9-4.6,4.6-1.5c1.9,3.3,2.9,4.5,6.5,7.7c2.5,2.6-0.4,5.7-3.4,3.3
		C47.5,29.5,45.1,27.3,43.4,23.1z"/>
	<path class="st0" d="M33.9,26.7c-1.1-3.5,2.8-4.6,4.9-1.6c2.2,3.4,3.3,4.5,7.5,7.8c2.9,2.6-0.1,5.8-3.4,3.4
		C38.6,33.1,36,31,33.9,26.7z"/>
	<path class="st0" d="M25,33.3c-2.1-3.4,1.9-4.9,4.9-2.1c3.3,3.1,4.7,4.1,10.1,6.8c3.7,2.3,1.4,5.8-2.8,3.8
		C31.8,39.2,28.3,37.4,25,33.3z"/>
	<path class="st0" d="M18.2,39.6c-2.1-3.4,1.9-4.9,4.9-2.1c3.3,3.1,4.8,4.1,10.1,6.8c3.7,2.3,1.4,5.8-2.8,3.8
		C25,45.5,21.6,43.7,18.2,39.6z"/>
	<path class="st0" d="M14.5,49.1c-2.1-2.9,0.9-5.3,3.7-3.2c3,2.3,4.3,3,8.9,4.6c3.3,1.4,1.9,5.4-1.8,4.4
		C20.8,53.5,17.8,52.4,14.5,49.1z"/>
	<path class="st0" d="M10.2,57.2c-2.7-2-0.6-6.2,2.7-3.8c3.2,2,5,2.9,9.6,4.5c3.1,1.2,1.9,5.4-1.6,4.5
		C16.3,60.8,12.5,59.2,10.2,57.2z"/>
	<path class="st0" d="M9.1,65.9c-3-2-0.7-4.7,1.7-3.4c3.2,1.6,3.7,1.9,8,3.2c3.4,0.9,2.1,4.5-0.4,3.7C15,68.8,12.7,68.2,9.1,65.9z"
		/>
	<path class="st0" d="M53.3,83.8c-1.5-3.4,2.3-4.9,4.7-2c2.6,3.1,3.8,4.1,8.2,6.9c3.2,2.3,0.6,5.7-3,3.7
		C58.7,89.7,55.8,87.9,53.3,83.8z"/>
	<path class="st0" d="M27.5,93.2c-1.9,3.1-4.7,1-3.5-1.6c1.4-3.3,1.7-3.8,2.7-8.2c0.6-3.5,4.3-2.4,3.8,0.1
		C29.9,87.1,29.4,89.3,27.5,93.2z"/>
	<path class="st0" d="M42.7,94.4c0.5,4-3.4,4.3-4.1,1.2c-1.1-3.8-1.2-4.5-3.3-9c-1.8-3.5,2.2-5.2,3.4-2.6
		C40.7,87.4,41.8,89.6,42.7,94.4z"/>
	<path class="st0" d="M53.9,92.8c1.9,3.4-1.8,5-3.7,2.3c-2.2-3.3-2.6-4-5.5-7.8c-2.7-2.9,0.7-5.6,2.6-3.5
		C50,86.5,51.5,88.7,53.9,92.8z"/>
	<path class="st0" d="M61.8,80c-2.5-3.1,1.1-5,4.5-2.6c3.7,2.7,5.2,3.5,10.9,5.6c4,1.8,2.2,5.4-2.3,3.9C69.3,85,65.7,83.6,61.8,80z"
		/>
	<path class="st0" d="M70.7,75.1c-2.5-3.1,1.2-5,4.5-2.6c3.7,2.7,5.3,3.5,10.9,5.6c4,1.8,2.2,5.4-2.3,3.9
		C78.2,80,74.6,78.6,70.7,75.1z"/>
	<path class="st0" d="M78.7,69.8c-3-2.9,0.6-5.3,4.5-3.2c4.2,2.3,5.9,3,12,4.5c4.5,1.4,2.9,5.4-1.9,4.4
		C87.1,74.1,83.2,73.1,78.7,69.8z"/>
	<path class="st0" d="M85.2,63.1c-2.9-2.9,0.7-5.4,4.5-3.2c4.2,2.3,5.9,3,12,4.5c4.4,1.4,2.9,5.4-1.9,4.4
		C93.7,67.4,89.7,66.4,85.2,63.1z"/>
	<path class="st0" d="M92.3,55.6c-3.2-1.5-1-5.4,2.2-3.8c4.8,1.9,5.6,2.3,11.8,4c4.1,1,2.7,5-0.6,4.2C99.1,58.3,98.3,58.2,92.3,55.6
		z"/>
	<path class="st0" d="M98.1,48.7c-3.4-1.1-1.7-5.3,1.7-4c5.1,1.3,5.8,1.6,12.2,2.5c4.2,0.5,3.2,4.6-0.1,4.3
		C105.1,50.5,104.4,50.5,98.1,48.7z"/>
	<path class="st0" d="M103,41.3c-4-0.9-2.8-4.5,0.3-4.1c4,0.3,4.7,0.4,9.7,0.1c4-0.5,4.1,3.7,1.2,4C110.3,41.9,107.8,42.1,103,41.3z
		"/>
	<path class="st0" d="M106,33.7c-4,0-3.7-3.9-0.6-4.1c4-0.5,4.7-0.5,9.5-1.9c3.7-1.3,4.8,2.7,2,3.6C113.3,32.8,110.8,33.5,106,33.7z
		"/>
	<path class="st0" d="M102.9,22.3c-2.1,3.3,1.6,5,3.4,2.6c2.5-3,2.9-3.5,6.7-6.8c3.1-2.4,0-5.3-2.2-3.5
		C107.7,16.9,105.7,18.4,102.9,22.3z"/>
	<path class="st0" d="M83.8,25.9c0.6-0.4,1.1,0.1,0.1,0.9c-6.8,5.2-15.5,6.7-25.7,10.6c-13,4.9-18.3,12.2-22,18.1
		c-1.4,2.8-3.4,2-2.4-0.6c2.9-7.9,13-15,25.2-19.4C66.5,32.9,77.7,31.4,83.8,25.9z"/>
	<path class="st0" d="M35,78.8c-5-0.1-5-4.7-1.3-4.9c27.7,1.7,54.6-16.2,63-44.9c1.1-3.6,2.1-3.7,0.4,1.5
		C89.2,58.2,66.7,78.6,35,78.8z"/>
	<path class="st0" d="M11,84.2c10.1-14.9,27.6-23,41.4-27.9c17-6,33.5-18.6,38.3-24.8c1.1-1.2,2-3,2.7-4.5c0.6-1.4,1.2-1.9,0.9-0.6
		c-0.4,1.4-1.4,3.6-2.4,5.2c-5.1,8.1-22.1,19.7-40.6,27.6c-9.6,4.1-27.9,14.7-34.4,24.7C6,100.5,4,114.8,5.7,130.2
		c2.5,23.4,21.5,46,50.6,51c1.7,0.1,2.3,0.9,0,0.8c-30.7-4.2-51-26.5-55.6-54C-1.6,113.6,1.4,98.4,11,84.2z"/>
</g>
</svg>
